<?xml version="1.0" standalone="no"?>
<!DOCTYPE svg PUBLIC "-//W3C//DTD SVG 1.1//EN" 
    "http://www.w3.org/Graphics/SVG/1.1/DTD/svg11.dtd">
<svg width="12cm" height="12cm"
    xmlns="http://www.w3.org/2000/svg" version="1.1" viewBox="0 0 425.19685 425.19685">
  <g fill="none" stroke="black" stroke-width="0.03cm">
    <path d="M107.44407 83.8227 L78.71735 79.65443 L86.16957 255.73843 L90.41382 279.41867 L159.13852 260.39437 L188.60101 103.62654 L107.44407 83.8227" />
    <path d="M219.48349 272.21104 L146.35329 352.7 L239.34238 331.31422 L242.6172 298.17766 L219.48349 272.21104" />
    <path d="M260.94973 242.6217 L256.65883 256.29825 L264.33095 304.1111 L286.29891 292.38528 L299.16817 225.6021 L282.66386 205.75525 L260.94973 242.6217" />
    <path d="M313.16092 282.38 L307.11096 353.72214 L335.48119 340.93614 L349.38336 311.58277 L329.85401 260.81784 L313.16092 282.38" />
    <path d="M246.13654 174.35254 L229.73942 166.97297 L245.16985 190.25097 L246.13654 174.35254" />
    <path d="M304.31848 78.0604 L269.46606 120.62215 L311.27688 106.70809 L304.31848 78.0604" />
    <path d="M335.43449 123.30254 L315.08745 129.02597 L343.1123 126.40781 L335.43449 123.30254" />
    <path d="M336.02217 157.14048 L303.47315 179.00623 L334.61161 165.87012 L336.02217 157.14048" />
  </g>
</svg>