<?xml version="1.0" standalone="no"?>
<!DOCTYPE svg PUBLIC "-//W3C//DTD SVG 1.1//EN" 
    "http://www.w3.org/Graphics/SVG/1.1/DTD/svg11.dtd">
<svg width="12cm" height="12cm"
    xmlns="http://www.w3.org/2000/svg" version="1.1" viewBox="0 0 425.19685 425.19685">
  <g fill="none" stroke="black" stroke-width="0.03cm">
    <path d="M213.48824 117.19986 L213.42729 124.97436 L213.48574 201.94331 L213.82788 203.9245 L215.12289 206.20576 L219.55337 213.48405 L224.71898 217.70741 L231.5251 221.95843 L313.19103 269.31172 L343.24017 286.60896 L346.25111 288.18067 L351.41963 290.60205 L352.85514 288.58179 L353.62763 273.76798 L354.02658 260.84981 L354.25394 236.88138 L354.25081 71.93595 L343.26843 71.22968 L294.19997 70.90874 L269.53589 70.90415 L227.45947 71.06224 L222.40869 71.26719 L218.16418 73.45069 L213.88388 79.48268 L213.48824 117.19986" />
    <path d="M193.68353 332.11249 L191.56733 352.18768 L192.76998 354.30288 L257.94804 354.28694 L336.64654 354.16579 L349.89345 353.65745 L354.23522 333.05223 L353.84815 306.50512 L344.72288 290.96123 L342.40406 287.04588 L224.55334 218.62886 L220.01126 216.22437 L217.34166 218.94558 L208.84842 238.25557 L199.57622 295.32978 L193.68353 332.11249" />
    <path d="M71.07674 263.87063 L70.96936 333.85745 L71.59066 347.88 L72.6161 350.39315 L92.90369 353.47262 L128.50007 354.23544 L152.59698 353.89014 L160.52539 353.70354 L178.46773 352.16872 L189.21059 350.62466 L191.91454 340.27939 L200.04635 291.38508 L202.15452 274.42117 L202.78396 264.94991 L199.52645 264.04023 L188.88824 261.79109 L174.12214 260.60261 L148.00901 258.73734 L94.87 256.01077 L75.75922 256.36531 L71.07674 263.87063" />
    <path d="M140.88027 168.83942 L140.78251 177.87546 L140.89787 210.77759 L142.80234 237.52756 L144.73044 252.11411 L145.03036 253.41793 L148.47192 257.76001 L187.51567 259.21281 L200.48843 258.43642 L204.39966 258.07612 L214.71645 212.86909 L212.41618 160.14551 L211.60934 148.00205 L205.19785 141.93913 L175.45417 152.19915 L156.38634 159.4733 L144.53624 165.46094 L140.88027 168.83942" />
    <path d="M138.82618 73.25317 L137.04413 79.04508 L144.89579 138.20069 L148.36701 159.44448 L155.79296 158.44947 L162.05316 156.82359 L181.62213 149.70365 L183.50899 149.01223 L204.61219 141.21834 L212.80281 135.09307 L212.49635 101.47218 L212.27483 79.6833 L210.52625 72.28569 L206.24778 71.00063 L156.18342 71.92235 L140.94794 73.03181 L138.82618 73.25317" />
    <path d="M72.56721 203.59932 L71.98393 249.35663 L78.1225 252.83669 L86.09553 254.7747 L87.87412 255.11503 L128.9736 256.79687 L135.44888 256.69786 L139.34347 256.3533 L139.94745 223.93679 L139.40409 209.47612 L135.19826 199.83818 L132.46661 198.97132 L102.49793 197.98626 L87.18002 197.68812 L73.35355 201.71938 L72.56721 203.59932" />
    <path d="M108.04667 71.06767 L104.009 80.98189 L105.25214 91.08434 L115.11455 134.64533 L128.44447 139.96915 L129.8176 140.32158 L140.234 142.96106 L143.30953 142.19878 L142.89496 134.1799 L140.8266 115.57947 L137.98955 92.7285 L134.6307 76.50436 L131.80105 74.51205 L125.73697 71.17671 L108.04667 71.06767" />
    <path d="M105.54531 176.61612 L103.74456 194.87525 L106.25512 196.20094 L113.30078 197.97003 L135.37743 198.0952 L139.51702 184.22982 L146.32561 160.85823 L147.07691 157.78729 L145.46908 152.19876 L135.24342 147.66091 L120.7493 141.263 L117.62618 140.11279 L112.6068 144.63436 L108.42989 159.47619 L107.3847 164.7087 L105.54531 176.61612" />
    <path d="M74.20849 77.53822 L71.23128 99.64941 L73.82131 105.89689 L76.69272 110.08251 L81.32432 111.65048 L103.49948 109.51787 L104.94952 106.83917 L105.76712 99.34463 L101.82341 79.12137 L98.05601 74.9181 L92.37738 72.95347 L88.25598 71.79963 L75.63021 73.07925 L74.20849 77.53822" />
    <path d="M71.64747 137.66643 L71.56267 145.15323 L72.91204 157.13431 L81.94585 164.27887 L95.62634 165.59631 L104.53299 163.0149 L107.50051 161.15357 L108.96974 144.79968 L99.00145 140.42992 L87.21397 138.3091 L71.64747 137.66643" />
    <path d="M75.20942 190.03367 L72.74734 195.57075 L87.86983 197.16088 L97.14211 196.54612 L101.14629 195.35617 L102.67948 188.0103 L104.53342 173.29498 L88.75938 181.17088 L75.20942 190.03367" />
    <path d="M73.71223 115.27739 L71.78168 127.84859 L72.04186 132.45897 L72.46626 134.14831 L73.99811 134.66884 L88.77273 137.67368 L91.65611 130.92276 L92.49804 127.12164 L91.28331 113.87672 L79.93311 114.02797 L73.71223 115.27739" />
    <path d="M107.49094 125.2067 L93.12197 127.99816 L94.74302 138.67026 L107.23476 140.54231 L111.07149 131.80935 L110.3052 127.38159 L107.49094 125.2067" />
    <path d="M86.32283 169.62287 L84.80288 170.63557 L90.40307 179.42511 L97.46773 174.55916 L102.59723 169.81281 L100.99809 168.95226 L92.60047 167.28854 L86.32283 169.62287" />
    <path d="M104.79385 111.64267 L102.44108 114.47937 L102.61688 115.63317 L103.15133 117.87546 L107.67134 121.2731 L106.10114 113.05842 L104.79385 111.64267" />
    <path d="M72.07011 170.66176 L71.73012 174.43969 L81.17086 169.43723 L80.66645 168.95422 L74.78193 165.47149 L73.22638 166.06113 L72.07011 170.66176" />
    <path d="M102.79011 121.11929 L100.66971 124.46077 L104.39889 125.00064 L106.60089 124.78321 L102.79011 121.11929" />
    <path d="M93.4795 119.60616 L92.98895 120.09093 L96.05546 123.89353 L99.02598 121.56329 L99.82844 119.98963 L100.25975 117.08809 L93.4795 119.60616" />
    <path d="M74.87448 178.14736 L72.32599 178.31528 L74.21113 182.43089 L74.87448 178.14736" />
    <path d="M77.11326 173.77641 L75.96534 175.27643 L79.2189 174.56816 L77.11326 173.77641" />
    <path d="M80.17349 178.16839 L80.16801 179.83736 L81.25999 178.7556 L80.17349 178.16839" />
  </g>
</svg>