<?xml version="1.0" standalone="no"?>
<!DOCTYPE svg PUBLIC "-//W3C//DTD SVG 1.1//EN" 
    "http://www.w3.org/Graphics/SVG/1.1/DTD/svg11.dtd">
<svg width="12cm" height="12cm"
    xmlns="http://www.w3.org/2000/svg" version="1.1" viewBox="0 0 425.19685 425.19685">
  <g fill="none" stroke="black" stroke-width="0.03cm">
    <path d="M70.8737 120.28017 L70.87182 216.32652 L70.96075 280.73215 L72.46589 282.93909 L74.49555 282.17129 L81.64272 278.57692 L114.78865 260.86972 L175.93987 228.12851 L204.72484 212.46478 L207.27049 211.06906 L210.47014 209.1048 L211.13334 206.88611 L211.83222 201.23309 L212.11936 193.7555 L212.28894 184.56225 L212.94918 148.56083 L213.22763 132.76751 L213.66278 107.43634 L214.09763 81.32304 L213.69392 71.94443 L212.93685 71.53794 L203.33867 70.94244 L189.70524 70.89567 L181.19907 70.86779 L123.26257 70.86882 L78.17409 70.87316 L71.13541 70.92025 L70.95696 88.59294 L70.9176 92.64999 L70.8737 120.28017" />
    <path d="M71.16005 292.95211 L70.95354 316.84931 L70.97544 341.25856 L71.18594 348.11152 L71.36005 350.33543 L72.30409 353.18492 L81.89333 354.249 L134.74075 354.32321 L169.16829 354.31534 L226.49233 354.26211 L227.98055 354.18335 L228.64937 354.0056 L228.96732 352.02996 L225.23481 325.4288 L221.32526 297.8836 L209.64718 215.89444 L207.95323 214.27586 L204.92927 213.70406 L203.88928 213.86297 L191.82202 219.63851 L177.48873 227.32015 L132.27378 251.57717 L104.63564 266.41517 L77.98389 280.74026 L72.25232 283.83976 L71.44077 289.08974 L71.16005 292.95211" />
    <path d="M217.80858 270.13263 L217.57444 270.86163 L220.23289 289.89962 L228.35657 347.02413 L228.62988 348.88206 L229.70229 352.25802 L231.68262 354.27003 L235.67311 354.31796 L273.93421 354.32057 L344.91102 354.31794 L351.25949 354.02256 L354.19104 353.5777 L354.32023 314.88666 L354.31941 282.13808 L354.2945 272.18408 L354.13081 254.89672 L352.71755 252.01531 L296.44623 258.71723 L239.43291 265.51341 L218.67247 268.03509 L217.80858 270.13263" />
    <path d="M279.27142 167.11133 L279.10938 167.75988 L279.13996 169.34293 L279.16817 170.56799 L280.80083 183.33612 L281.80499 190.87174 L286.24809 221.23553 L290.54472 249.65863 L292.06723 257.93045 L292.74218 258.31279 L293.91684 258.65876 L298.62605 258.41189 L350.16746 252.25017 L353.40338 251.42916 L353.867 250.76407 L354.27227 242.7793 L354.29738 205.45867 L354.30821 135.12615 L354.26049 133.99686 L353.00549 133.97447 L352.80231 134.03453 L350.64263 134.91141 L322.24754 147.53347 L279.27142 167.11133" />
    <path d="M273.68024 71.42961 L271.43064 72.9343 L272.90627 80.5914 L280.00001 109.76261 L284.79168 129.38033 L291.36539 156.01954 L292.22287 159.44293 L293.84258 160.18124 L348.03259 135.85644 L349.46467 135.20991 L354.11956 133.05441 L354.20906 132.28219 L354.31639 114.17874 L354.31091 93.51423 L354.27423 73.96663 L354.10292 71.05892 L347.5541 71.01585 L327.3776 70.89021 L276.37901 70.90169 L273.68024 71.42961" />
    <path d="M213.34193 128.4133 L213.26601 133.2209 L213.41385 136.34511 L213.89599 137.74466 L214.86618 137.76154 L269.19542 132.91819 L276.84582 132.23441 L281.68146 131.56211 L283.62917 131.0447 L284.50957 130.35126 L284.61265 129.4408 L281.14577 114.88574 L271.40982 75.53284 L270.68456 74.14087 L269.11932 71.87862 L264.15952 70.91588 L220.05368 70.87983 L217.14652 71.07488 L216.49796 71.91696 L214.61841 74.43594 L214.23055 83.90042 L213.34193 128.4133" />
    <path d="M212.83119 171.53202 L207.96226 211.70756 L211.9001 227.37824 L212.34371 228.28717 L213.81168 228.97554 L214.00624 228.99302 L278.16544 213.60057 L282.12624 212.10923 L283.73757 210.80491 L283.87987 205.3431 L281.29559 188.46392 L280.17034 186.18975 L220.2964 171.1724 L214.1638 169.97486 L212.83119 171.53202" />
    <path d="M213.3063 138.38345 L212.8418 158.79312 L212.9178 168.80117 L219.98822 170.98303 L241.63306 176.38809 L249.1623 178.16932 L250.33964 177.7195 L250.7322 172.29106 L251.7495 151.09305 L251.89546 138.9593 L251.2431 137.50777 L250.64627 136.771 L248.11794 135.12011 L247.74122 134.88381 L215.05223 137.97854 L213.3063 138.38345" />
    <path d="M212.98438 229.95797 L212.02517 231.37073 L215.29526 254.93045 L216.33879 261.6852 L217.41891 266.26606 L219.90324 267.17483 L225.27649 267.12514 L250.97078 263.99806 L255.02511 262.93937 L255.4885 260.22281 L255.4602 259.31518 L253.87402 251.15078 L249.24293 228.41573 L248.61051 225.79188 L247.36653 221.55059 L243.99778 222.02526 L236.87286 223.58682 L216.69254 228.45206 L212.98438 229.95797" />
    <path d="M252.73297 242.40464 L252.60353 243.48553 L252.7493 244.7105 L255.71265 259.57309 L256.34885 262.56901 L258.55527 262.49351 L269.33843 261.61997 L288.42325 259.31514 L290.85643 258.96655 L291.04263 257.90639 L291.15039 256.13596 L288.41128 236.4718 L288.04219 235.48792 L283.57627 236.28086 L279.22742 237.08778 L257.37329 241.35812 L252.73297 242.40464" />
    <path d="M251.50456 160.53492 L251.17367 176.20355 L251.9022 177.76487 L252.50285 178.50484 L267.79836 182.87372 L274.6259 184.63436 L278.22179 185.43901 L279.79941 185.68411 L280.31159 184.77376 L288.45895 162.4967 L279.7819 159.71026 L273.58175 158.43392 L253.48107 154.49142 L251.78045 154.6575 L251.50456 160.53492" />
    <path d="M267.55452 216.94483 L266.47171 218.68359 L268.97654 229.36604 L271.19912 237.96091 L278.09649 237.17249 L278.90023 237.04187 L284.86974 235.84038 L287.2557 233.45765 L287.40198 231.46471 L286.43434 223.89079 L286.19132 222.06131 L285.43905 217.62371 L284.97857 214.96203 L284.66038 213.2372 L283.41593 212.82525 L276.0856 214.68851 L267.55452 216.94483" />
    <path d="M250.45788 220.45899 L248.08344 221.51276 L249.86987 230.19362 L252.76701 231.09788 L258.13803 229.4873 L259.40469 229.02559 L265.05015 226.49711 L266.98678 224.3896 L266.81229 221.77537 L265.89516 217.57227 L260.3235 218.00918 L253.32409 219.67904 L250.45788 220.45899" />
    <path d="M253.99505 231.66315 L251.33269 234.64599 L251.69447 239.76068 L252.15467 241.81744 L256.10618 241.37839 L263.76564 239.86602 L266.20173 239.31627 L267.56627 238.70725 L270.42848 237.28571 L268.76367 229.26812 L268.41234 228.60319 L267.53697 227.89384 L266.74751 227.47963 L265.67136 227.60357 L257.46422 230.38067 L253.99505 231.66315" />
    <path d="M252.28092 139.75836 L252.19547 140.95351 L252.4777 147.48639 L262.15527 145.33514 L269.72907 143.11524 L271.02246 142.20269 L274.46001 134.21296 L274.17505 133.78111 L273.70511 133.42902 L268.37347 133.11638 L255.53853 134.50784 L252.73804 135.22994 L252.47204 137.80017 L252.28092 139.75836" />
    <path d="M274.10251 136.8634 L272.6396 141.35007 L273.23748 145.47852 L273.62413 146.65937 L274.20576 146.91582 L279.02654 146.4302 L288.53829 144.96217 L287.25829 140.00543 L285.37905 133.86253 L283.02686 132.32212 L279.84049 132.00975 L279.16826 132.11369 L277.65185 132.84349 L275.18131 134.60022 L274.97223 135.03754 L274.10251 136.8634" />
    <path d="M252.32305 149.71401 L252.16294 150.39351 L252.55892 152.07157 L254.03218 154.27627 L261.30193 155.65819 L263.26416 155.66641 L263.41148 146.18246 L263.07884 145.41146 L262.45916 145.54032 L253.28467 148.07982 L252.32305 149.71401" />
    <path d="M273.21084 149.86401 L270.56563 155.20229 L272.27473 157.65862 L277.19244 158.72305 L279.72769 157.93505 L280.40368 154.49127 L279.96066 147.99562 L278.67707 147.63887 L274.81585 147.91813 L273.21084 149.86401" />
    <path d="M264.70372 149.84876 L263.54921 154.9377 L265.14806 156.56236 L266.52693 156.57816 L268.1364 156.57963 L268.9876 155.1619 L270.7256 152.12728 L269.71768 151.4623 L268.35845 150.82234 L265.15022 149.84542 L264.70372 149.84876" />
    <path d="M282.53444 155.75365 L281.20876 159.26497 L281.33886 159.56639 L287.1748 160.41652 L289.94491 160.29567 L291.50992 159.99399 L290.89084 154.47275 L289.55 153.40104 L288.16959 153.26205 L283.50791 154.94147 L282.53444 155.75365" />
    <path d="M269.05268 144.85784 L268.5361 147.78689 L268.77214 149.94949 L268.89227 150.43586 L271.07793 150.89422 L272.1522 150.22841 L272.15711 147.59948 L272.04722 146.56089 L271.01569 143.62589 L269.05268 144.85784" />
    <path d="M266.36552 144.67594 L264.2938 145.08251 L264.30583 148.09608 L265.74537 149.85419 L267.60191 149.89641 L267.81485 149.46756 L268.19068 145.21014 L266.74829 144.70467 L266.36552 144.67594" />
    <path d="M281.07566 151.14157 L281.03173 154.02572 L281.86209 154.30937 L283.73154 153.61537 L283.88464 153.18647 L283.98436 151.83134 L283.19811 150.91448 L282.10311 150.05407 L281.07566 151.14157" />
    <path d="M288.74977 147.16236 L287.46918 147.2962 L289.05521 152.01087 L289.57184 150.45591 L289.60286 150.19835 L288.74977 147.16236" />
    <path d="M286.09032 145.71478 L285.16552 146.87713 L285.64149 147.42847 L286.66546 146.9426 L287.00489 145.79238 L286.09032 145.71478" />
    <path d="M285.3709 150.28204 L284.47916 149.72218 L284.74529 150.8519 L285.2669 151.34822 L285.33869 151.07866 L285.3709 150.28204" />
    <path d="M283.77904 146.12958 L280.70668 146.85678 L282.44722 146.89965 L284.27382 146.64523 L283.77904 146.12958" />
    <path d="M287.67118 152.11589 L287.1207 151.55058 L287.22056 152.90383 L287.67118 152.11589" />
    <path d="M282.67672 148.7741 L281.63454 147.90119 L281.85012 149.01541 L282.67672 148.7741" />
    <path d="M286.1945 151.93577 L285.4192 152.35212 L286.11409 152.60134 L286.1945 151.93577" />
  </g>
</svg>