<?xml version="1.0" standalone="no"?>
<!DOCTYPE svg PUBLIC "-//W3C//DTD SVG 1.1//EN" 
    "http://www.w3.org/Graphics/SVG/1.1/DTD/svg11.dtd">
<svg width="12cm" height="12cm"
    xmlns="http://www.w3.org/2000/svg" version="1.1" viewBox="0 0 425.19685 425.19685">
  <g fill="none" stroke="black" stroke-width="0.03cm">
    <path d="M70.89048 84.14492 L70.88907 174.32753 L70.90977 206.09215 L70.93024 215.79729 L71.06393 220.32897 L71.55353 222.01853 L78.83192 221.40373 L114.05308 216.02505 L120.45745 215.04634 L150.01371 210.30915 L152.26291 209.91547 L155.62435 209.30004 L157.03095 205.43321 L175.93541 74.37543 L173.32534 71.40841 L171.33566 71.15081 L161.39931 71.03303 L143.78567 70.88773 L98.41542 70.87647 L94.05511 70.87597 L86.69464 70.88104 L80.39773 71.33814 L78.60709 71.52892 L74.10353 72.4321 L71.02146 73.68266 L70.89048 84.14492" />
    <path d="M163.81029 346.10531 L163.60226 350.61697 L163.76749 353.73681 L167.73769 354.17961 L174.89038 354.29929 L241.54214 354.32693 L256.76259 354.27741 L265.5289 354.11299 L266.56625 351.82623 L265.38506 335.09738 L263.47832 311.59341 L258.01966 244.72792 L256.12012 224.67709 L255.34277 221.16452 L254.74612 220.71887 L254.4945 220.65281 L236.12507 220.47629 L178.02418 221.51507 L172.22738 221.82039 L170.91433 230.61783 L170.46032 236.4925 L167.82981 278.42693 L165.60952 314.55044 L163.81029 346.10531" />
    <path d="M70.90219 227.88238 L70.88549 253.37358 L71.52721 266.22964 L76.26857 267.92608 L78.6822 268.6214 L108.10512 274.89062 L157.34291 285.35462 L158.46105 285.54918 L166.29493 286.88949 L166.94136 286.32431 L202.49163 220.21938 L199.31939 217.03558 L185.16987 204.28314 L164.84955 186.12158 L161.21756 182.97878 L160.57127 183.21333 L73.77923 222.49299 L71.86381 224.16155 L70.97964 225.45301 L70.90219 227.88238" />
    <path d="M110.12782 348.02134 L109.65561 352.93233 L110.02505 353.98644 L120.10093 354.30653 L154.83362 354.3253 L161.65854 353.54675 L163.06752 353.36308 L164.34919 334.41131 L165.28983 319.07945 L166.26322 301.43812 L166.95828 287.99366 L166.25569 287.39663 L163.43566 286.74955 L138.89896 281.54626 L125.12269 278.75862 L123.52108 279.51141 L120.73034 292.17924 L110.43704 344.85795 L110.12782 348.02134" />
    <path d="M70.91732 271.9025 L70.87731 279.74126 L70.89326 336.26346 L70.89704 338.42171 L70.92225 342.58448 L71.00008 344.85311 L71.14946 348.14384 L71.7205 351.25272 L72.85239 352.48344 L76.9476 354.25771 L85.14386 354.30367 L87.67429 354.3156 L96.27822 354.2714 L103.68367 354.09495 L104.22384 354.06842 L107.88561 353.72137 L109.30272 349.70475 L110.8375 342.5372 L118.58744 302.65433 L119.21047 299.33137 L121.5656 286.66316 L122.17785 282.00897 L122.21612 278.24105 L121.52653 277.92972 L112.35201 275.89171 L75.8758 268.2151 L75.58535 268.16192 L73.5938 267.82974 L71.15419 269.41251 L70.91732 271.9025" />
    <path d="M167.1291 137.29075 L166.78269 143.48521 L195.37823 143.12465 L252.46852 142.29264 L257.12266 142.09927 L257.66417 141.67287 L258.5247 140.74812 L261.08871 131.13522 L265.29748 100.56518 L268.07869 80.14301 L268.73342 73.37225 L267.319 71.09663 L258.84352 70.8778 L233.19298 70.87469 L182.39325 70.8771 L176.58538 71.57781 L175.44162 78.55747 L174.96272 81.63501 L168.06819 129.76398 L167.82276 131.62354 L167.1291 137.29075" />
    <path d="M267.69338 84.0038 L260.14977 138.44285 L261.45708 141.2994 L269.18297 141.79709 L282.52854 142.08232 L295.86057 142.24932 L340.0497 142.59363 L352.1437 142.50666 L352.52661 142.19356 L353.80192 140.98137 L353.84073 140.78785 L354.27906 126.87039 L354.31781 83.06362 L354.22502 77.02289 L354.12898 72.64427 L352.88838 71.18581 L347.4042 70.90762 L271.29226 70.8731 L269.97717 71.25911 L267.69338 84.0038" />
    <path d="M161.04459 178.9103 L160.9816 180.2847 L162.10701 183.24716 L172.30707 192.56338 L180.98567 200.42765 L183.17479 202.37624 L198.49097 215.87471 L201.15856 218.08114 L202.36302 219.03327 L205.14653 220.74025 L205.19888 220.76537 L206.53129 220.89752 L211.3203 220.89318 L224.71526 220.651 L225.79644 220.18218 L226.40432 216.38894 L227.88991 205.64047 L228.92202 197.99303 L232.57355 166.93696 L233.6662 157.05249 L234.87039 145.57387 L233.3634 143.47033 L233.05779 143.34348 L230.36696 142.70965 L203.23063 143.06235 L179.89369 143.41423 L168.19545 143.90709 L167.20585 144.15473 L165.75338 146.0048 L163.95266 158.28127 L161.04459 178.9103" />
    <path d="M261.32424 272.26042 L260.42318 272.52106 L260.44021 272.75722 L260.87628 278.70795 L265.92351 340.59317 L266.63082 348.34718 L267.26923 353.36704 L270.57766 354.14845 L278.03444 354.17976 L306.85674 354.27114 L308.50788 354.12424 L310.84264 353.57671 L310.74859 350.4954 L309.96673 330.83923 L308.06375 291.45196 L307.97959 290.56056 L307.27619 289.2263 L305.53878 286.13058 L304.22645 285.00465 L300.41226 283.404 L294.44719 281.65008 L264.65618 273.06823 L261.32424 272.26042" />
    <path d="M257.49857 216.43937 L250.77267 219.22215 L260.31516 270.19954 L260.75007 271.70407 L267.63493 273.76426 L285.85865 279.11136 L293.45375 281.29254 L296.59352 281.98007 L298.97523 282.34483 L299.896 279.44786 L305.32944 253.36415 L308.59031 235.48075 L311.94961 214.66928 L299.12464 206.86619 L297.14201 205.89206 L293.94185 204.4138 L292.80018 204.14667 L290.99042 203.99999 L290.07194 203.96923 L265.41922 213.33885 L257.49857 216.43937" />
    <path d="M309.41953 300.16028 L309.00053 307.4075 L309.12084 311.42824 L309.19657 313.23604 L310.74082 342.67514 L311.1634 350.23892 L311.42044 353.7685 L313.02593 354.16042 L316.45374 354.24057 L345.49485 354.28703 L347.79267 354.13407 L351.9148 353.61694 L352.58412 353.32079 L354.23195 351.70889 L354.31394 340.33251 L354.2298 317.15469 L353.92059 298.37811 L353.18679 297.4024 L322.30233 298.69198 L312.12067 299.26223 L309.41953 300.16028" />
    <path d="M227.68566 209.15042 L227.12949 214.83056 L227.46314 218.44581 L228.2536 219.41575 L228.32831 219.46888 L230.67782 220.46979 L239.4766 220.35963 L248.17757 219.75581 L253.31259 217.82721 L259.20207 215.60709 L276.78175 208.94115 L288.89203 204.22011 L292.66628 201.89599 L293.72763 198.10926 L293.61447 193.00108 L288.60274 190.67645 L269.44822 183.25154 L243.86489 173.56189 L234.04816 169.95303 L232.51702 170.72173 L231.22617 179.80839 L227.68566 209.15042" />
    <path d="M233.2898 164.60336 L233.20152 165.71354 L233.3323 166.16307 L238.28177 170.18246 L241.34417 172.20862 L249.12409 175.47083 L255.44114 177.86029 L272.45007 184.06255 L278.64547 162.54717 L279.79498 158.24319 L282.40076 147.0441 L282.1401 142.40878 L264.38515 142.14127 L260.45962 142.17245 L236.35118 142.60353 L235.88046 143.47171 L235.25018 147.17961 L233.54938 161.66718 L233.2898 164.60336" />
    <path d="M313.85088 145.58325 L313.48285 149.70212 L318.3504 176.32981 L318.42673 176.72468 L319.85965 181.19047 L346.9296 184.67131 L351.5376 185.18049 L353.37124 185.19097 L354.17151 181.81102 L354.26097 178.98344 L354.27675 170.6939 L354.28983 144.17423 L354.23326 143.31294 L354.00299 143.11199 L332.3306 142.64482 L321.79687 142.52963 L314.17095 142.63067 L313.85088 145.58325" />
    <path d="M324.25457 288.59962 L321.41789 297.84204 L322.59004 298.09278 L328.06953 298.2457 L353.51634 296.76479 L354.16001 296.12243 L354.28467 289.0443 L354.2761 286.36731 L354.22894 274.78774 L354.06998 260.47024 L353.91658 258.07106 L345.10354 258.8943 L333.47427 260.95179 L332.10505 263.87625 L329.6966 271.32499 L326.00373 282.99133 L324.25457 288.59962" />
    <path d="M302.86687 267.638 L300.51046 280.8725 L301.02662 283.3064 L309.441 298.53598 L313.40099 298.56682 L320.73772 298.50638 L321.43349 296.49534 L329.62337 270.73167 L331.85338 263.64548 L332.21467 262.24098 L325.18076 258.72886 L311.68381 252.44985 L309.25456 251.81489 L305.538 254.22474 L304.17074 261.04135 L302.86687 267.638" />
    <path d="M274.18434 180.73117 L273.60241 184.68655 L294.25309 198.89571 L295.29673 197.83695 L300.19857 192.11735 L309.54058 181.02675 L311.8627 178.11965 L314.26912 174.67963 L297.7409 167.70329 L281.81354 161.19397 L280.36215 161.2749 L279.24746 161.65163 L278.09925 165.30373 L274.18434 180.73117" />
    <path d="M309.63418 230.49724 L306.53913 247.75026 L306.69457 249.31328 L311.54992 252.04331 L322.6657 257.35171 L324.02658 257.80751 L324.35224 257.22807 L329.3633 244.40082 L332.47408 234.72691 L334.02678 229.03806 L334.1042 227.71201 L334.01266 226.19165 L333.69553 223.76643 L333.31414 223.16215 L327.58896 219.35327 L325.70391 218.11571 L317.84725 216.94559 L316.13419 217.02007 L314.46528 217.3026 L311.89068 220.87443 L310.51283 226.11461 L309.63418 230.49724" />
    <path d="M326.8737 183.13944 L326.48355 186.7761 L327.28562 196.36911 L328.01517 201.13857 L330.23625 206.06237 L330.7496 207.00519 L340.87138 206.56887 L352.16107 206.04895 L354.21154 205.8946 L354.28665 194.59278 L354.26196 189.27887 L353.02356 185.76032 L334.54552 183.18528 L327.49773 182.49153 L326.8737 183.13944" />
    <path d="M280.59921 156.58126 L280.3046 158.25206 L280.81463 159.90308 L281.83796 160.78021 L291.39392 164.88532 L293.66496 165.28909 L296.35895 162.58271 L301.40578 155.37686 L307.51157 146.50504 L308.95364 144.17846 L308.09335 142.75019 L297.09214 142.41904 L288.00329 142.25747 L285.11439 142.26454 L284.29494 143.41193 L283.28577 145.94455 L282.32137 148.885 L280.59921 156.58126" />
    <path d="M333.76538 232.03833 L332.16803 238.85932 L333.15736 240.01787 L339.83852 242.95894 L350.72844 246.82996 L353.51707 246.29998 L353.81715 245.49008 L354.13922 242.88672 L354.2505 240.5392 L354.23087 228.50592 L352.71522 225.83217 L348.17228 225.11145 L342.53961 225.94756 L337.89231 228.15997 L334.09044 231.10121 L333.76538 232.03833" />
    <path d="M301.8993 191.01025 L301.83191 191.40748 L301.89554 192.08473 L303.13351 193.36965 L313.14286 196.39122 L318.99983 198.03095 L327.11123 200.1983 L327.28987 200.18676 L327.1113 195.69107 L325.87326 184.4117 L317.72249 174.21156 L315.72931 174.93623 L310.99743 179.95203 L308.52248 182.57685 L303.49279 188.46902 L302.51567 189.94737 L301.8993 191.01025" />
    <path d="M294.31103 199.95102 L293.66233 202.72792 L293.7528 203.36238 L295.09463 204.20056 L303.08091 209.03049 L310.69005 213.4411 L314.11189 202.94019 L315.32124 197.48504 L307.47485 194.97138 L300.02418 193.09942 L297.13142 196.01244 L294.46305 199.53573 L294.31103 199.95102" />
    <path d="M300.19441 157.81662 L300.01546 158.78235 L303.01792 159.489 L308.7247 160.22907 L311.39941 160.22004 L314.75207 160.07018 L314.77934 159.58075 L314.30803 156.37034 L312.2588 144.90825 L311.06133 143.12054 L309.39273 144.29589 L304.75753 151.01782 L300.19441 157.81662" />
    <path d="M331.94278 257.54052 L331.33522 259.02102 L331.44068 261.40008 L342.8176 258.94656 L344.75378 257.82286 L342.86302 253.91246 L341.16292 250.76146 L339.96473 249.73454 L338.46328 248.78451 L334.5196 253.29493 L333.58871 254.61121 L331.94278 257.54052" />
    <path d="M296.15789 165.38187 L295.6621 166.57457 L301.6816 169.23176 L304.7812 168.62384 L306.71884 162.41564 L306.80864 161.61936 L305.35066 160.74657 L298.74076 159.9352 L296.15789 165.38187" />
    <path d="M328.44902 247.50721 L325.32887 257.2833 L326.90709 258.72488 L328.23853 258.94615 L329.75024 258.20466 L331.37947 256.62002 L337.81961 249.2843 L339.33922 247.16539 L338.97219 243.89827 L338.24654 243.21731 L331.36022 240.30703 L329.60485 244.26278 L328.44902 247.50721" />
    <path d="M306.73032 165.26335 L305.77106 169.00973 L307.58103 170.83173 L310.20222 172.71682 L310.85329 173.14532 L313.50307 173.41989 L316.19683 172.15514 L316.77165 170.76616 L316.78476 169.12342 L315.15542 161.45466 L311.25925 160.93054 L310.09375 160.81709 L308.60654 161.86039 L307.78504 162.88472 L306.73032 165.26335" />
    <path d="M343.16807 206.57212 L337.71889 207.1231 L338.76729 211.24276 L340.61763 215.51473 L344.31062 215.9413 L345.6926 215.65635 L351.70275 214.14375 L353.03182 213.65663 L353.28301 213.4508 L353.54895 212.36114 L354.18339 208.39568 L348.96084 206.31315 L343.16807 206.57212" />
    <path d="M313.07955 207.15921 L311.24894 212.3744 L312.38042 215.92694 L313.87645 217.14787 L323.637 214.55395 L324.45624 210.30908 L315.11004 205.50332 L313.63609 205.73395 L313.07955 207.15921" />
    <path d="M345.67285 252.76866 L344.38098 254.8861 L346.84096 257.76522 L347.9427 258.19864 L353.34089 257.03704 L354.16599 255.80254 L354.28869 254.00685 L353.9891 250.1444 L353.86673 248.88752 L352.46916 247.77688 L350.81803 248.82354 L345.67285 252.76866" />
    <path d="M340.44226 244.07507 L339.89725 244.54265 L340.10548 247.5242 L341.06228 249.62185 L343.1423 253.21917 L343.76056 253.83196 L345.02539 253.08828 L349.93448 246.88346 L341.41908 243.74497 L340.44226 244.07507" />
    <path d="M315.97127 199.77246 L315.01217 204.21611 L315.13216 204.43656 L318.31416 206.82943 L319.47438 206.60606 L321.48594 203.84954 L322.74919 201.60138 L323.21556 200.42924 L322.66135 199.75014 L320.58875 198.7569 L318.06905 198.0487 L317.50194 197.92721 L316.5013 198.60283 L315.97127 199.77246" />
    <path d="M323.8226 200.86635 L320.70101 206.09946 L322.41756 208.82848 L324.63113 209.30799 L327.7095 207.73748 L327.79693 205.25556 L327.7031 203.16648 L325.33308 200.14401 L323.8226 200.86635" />
    <path d="M334.90143 207.57008 L334.10626 214.43157 L334.49803 215.6119 L335.41792 216.43915 L336.46994 217.34145 L336.92458 217.53836 L338.67099 218.21475 L342.51453 216.77373 L337.84931 209.7242 L334.90143 207.57008" />
    <path d="M328.84781 207.90126 L328.58271 209.01007 L330.40632 212.20356 L331.37659 212.7207 L334.08593 209.10339 L334.53413 208.47144 L333.56872 207.42341 L328.84781 207.90126" />
    <path d="M348.13454 221.47398 L348.10772 222.41268 L350.10965 223.8018 L354.00782 223.01973 L353.51036 220.1312 L348.13454 221.47398" />
    <path d="M324.97419 210.50427 L324.35415 215.41787 L325.51403 216.40367 L327.47238 217.15326 L330.44038 213.14176 L330.5022 212.7721 L326.80571 209.25347 L325.74082 209.85881 L324.97419 210.50427" />
    <path d="M348.2374 215.86472 L344.28234 217.26007 L344.61604 218.49063 L347.15412 219.93652 L350.2006 218.91492 L349.84848 216.74547 L348.2374 215.86472" />
    <path d="M332.50829 214.57093 L332.04566 215.57796 L332.78752 217.52621 L333.20929 218.0842 L335.12667 219.92622 L336.20474 218.56164 L334.27638 216.15132 L332.50829 214.57093" />
    <path d="M352.88416 214.61446 L352.13265 215.1864 L352.77542 216.52276 L353.01775 216.35522 L354.3176 215.09038 L352.88416 214.61446" />
    <path d="M354.31097 218.75739 L350.5363 216.55705 L350.57285 217.08771 L351.23927 218.77616 L351.49964 219.00637 L353.27827 219.69849 L354.31097 218.75739" />
    <path d="M328.25659 216.91232 L327.13389 218.12429 L328.23163 218.92724 L331.28393 217.28242 L330.44157 216.04341 L329.86025 215.68548 L328.25659 216.91232" />
    <path d="M343.81185 223.53876 L342.43262 224.81725 L344.29538 225.05042 L346.15257 224.77143 L346.91916 223.88621 L346.72066 222.87991 L345.73486 222.91041 L343.81185 223.53876" />
    <path d="M338.21979 219.06784 L337.77276 219.71888 L340.18532 221.07209 L341.49423 219.23216 L340.81867 218.29657 L339.9201 218.11775 L338.21979 219.06784" />
    <path d="M330.88993 218.86174 L329.81596 219.84855 L331.6306 220.12333 L331.85184 219.83992 L332.05165 218.84325 L331.46526 218.53322 L330.88993 218.86174" />
    <path d="M345.13602 219.93118 L344.89914 220.49355 L345.55425 220.84556 L347.04253 221.37102 L345.13602 219.93118" />
    <path d="M336.36499 225.50501 L335.77988 224.65394 L335.82283 226.90179 L335.90222 226.71326 L336.36499 225.50501" />
    <path d="M332.91402 220.56875 L331.37663 221.4338 L334.18173 223.58672 L333.93726 221.63296 L332.91402 220.56875" />
    <path d="M336.1519 221.32067 L335.62827 221.25366 L336.50086 223.08452 L336.1519 221.32067" />
    <path d="M341.53535 225.15347 L340.31487 226.17344 L341.30274 226.05362 L341.53535 225.15347" />
    <path d="M339.21208 225.1588 L338.93479 225.88807 L338.99755 226.09454 L339.44914 224.79894 L339.21208 225.1588" />
    <path d="M342.90982 220.85582 L342.67705 221.596 L344.03703 221.27688 L343.75008 220.29236 L342.90982 220.85582" />
    <path d="M339.08407 222.11046 L338.64629 222.1861 L339.3975 223.01173 L339.08407 222.11046" />
    <path d="M341.15603 222.2467 L340.53154 222.51443 L340.70979 222.47774 L341.15603 222.2467" />
    <path d="M341.71795 222.78801 L340.87704 223.67537 L341.52444 223.48772 L341.71795 222.78801" />
  </g>
</svg>